<svg width="1512" height="982" viewBox="0 0 1512 982" fill="none" xmlns="http://www.w3.org/2000/svg">
<g filter="url(#filter0_f_1_6)">
<path d="M893.353 356.315C893.353 536.668 434.377 982 189.632 982C-55.1119 982 7.05509 536.668 7.05509 356.315C7.05509 175.962 205.46 29.7576 450.204 29.7576C694.948 29.7576 893.353 175.962 893.353 356.315Z" fill="url(#paint0_linear_1_6)"/>
</g>
<g filter="url(#filter1_f_1_6)">
<path d="M618.647 625.685C618.647 445.332 1077.62 0 1322.37 0C1567.11 0 1504.94 445.332 1504.94 625.685C1504.94 806.038 1306.54 952.242 1061.8 952.242C817.052 952.242 618.647 806.038 618.647 625.685Z" fill="url(#paint1_linear_1_6)"/>
</g>
<defs>
<filter id="filter0_f_1_6" x="-250" y="-220.242" width="1393.35" height="1452.24" filterUnits="userSpaceOnUse" color-interpolation-filters="sRGB">
<feFlood flood-opacity="0" result="BackgroundImageFix"/>
<feBlend mode="normal" in="SourceGraphic" in2="BackgroundImageFix" result="shape"/>
<feGaussianBlur stdDeviation="125" result="effect1_foregroundBlur_1_6"/>
</filter>
<filter id="filter1_f_1_6" x="368.647" y="-250" width="1393.35" height="1452.24" filterUnits="userSpaceOnUse" color-interpolation-filters="sRGB">
<feFlood flood-opacity="0" result="BackgroundImageFix"/>
<feBlend mode="normal" in="SourceGraphic" in2="BackgroundImageFix" result="shape"/>
<feGaussianBlur stdDeviation="125" result="effect1_foregroundBlur_1_6"/>
</filter>
<linearGradient id="paint0_linear_1_6" x1="893.388" y1="29.7576" x2="324.127" y2="1147.13" gradientUnits="userSpaceOnUse">
<stop stop-color="#F18F01"/>
<stop offset="0.793989" stop-color="#A23B72"/>
</linearGradient>
<linearGradient id="paint1_linear_1_6" x1="618.647" y1="952.242" x2="1187.91" y2="-165.131" gradientUnits="userSpaceOnUse">
<stop stop-color="#0075FF"/>
<stop offset="1" stop-color="#A23B72"/>
</linearGradient>
</defs>
</svg>
